<?xml version="1.0" standalone="no"?>
<!DOCTYPE svg PUBLIC "-//W3C//DTD SVG 20010904//EN"
 "http://www.w3.org/TR/2001/REC-SVG-20010904/DTD/svg10.dtd">
<svg version="1.0" xmlns="http://www.w3.org/2000/svg"
 width="360.000000pt" height="360.000000pt" viewBox="0 0 360.000000 360.000000"
 preserveAspectRatio="xMidYMid meet">
<metadata>
Created by potrace 1.11, written by Peter Selinger 2001-2013
</metadata>
<g transform="translate(0.000000,360.000000) scale(0.100000,-0.100000)"
fill="#000000" stroke="none">
<path d="M1615 3589 c-445 -46 -874 -268 -1166 -602 -427 -489 -559 -1163
-347 -1776 294 -853 1180 -1354 2068 -1170 967 200 1591 1157 1389 2129 -185
895 -1033 1514 -1944 1419z m218 -470 c14 -6 30 -22 36 -36 8 -17 11 -218 11
-671 l0 -646 -267 -268 c-147 -147 -279 -272 -295 -279 -54 -22 -117 32 -103
88 4 18 95 117 256 278 l249 251 0 611 c0 429 3 619 11 637 18 40 60 54 102
35z"/>
</g>
</svg>
